<?xml version="1.0" encoding="UTF-8"?>
<svg id="Layer_2" xmlns="http://www.w3.org/2000/svg" version="1.1" viewBox="0 0 160 160">
  <!-- Generator: Adobe Illustrator 29.8.1, SVG Export Plug-In . SVG Version: 2.1.1 Build 2)  -->
  <defs>
    <style>
      .st0 {
        fill: #b6ff00;
      }
    </style>
  </defs>
  <polygon class="st0" points="70.62 47.43 68.01 47.43 68.01 40.65 65.93 40.65 65.93 36.49 63.84 36.49 63.84 31.8 61.76 31.8 61.76 27.63 59.68 27.63 59.68 23.46 57.59 23.46 57.59 21.37 54.99 21.37 54.99 18.77 52.9 18.77 52.9 16.68 50.82 16.68 50.82 12.51 57.29 12.51 57.59 14.6 59.68 14.6 59.68 16.68 61.76 16.68 61.76 18.77 63.84 18.77 63.84 21.37 65.93 21.37 65.93 23.46 68.01 23.46 68.01 27.63 70.62 27.63 70.62 31.8 72.7 31.8 72.7 36.49 74.79 36.49 74.79 40.65 76.87 40.65 76.87 47.43 78.96 47.43 78.96 77.65 76.87 77.65 76.87 83.91 74.79 83.91 74.79 88.6 72.7 88.6 72.7 90.68 70.62 90.68 70.62 92.77 68.01 92.77 68.01 94.85 65.93 94.85 65.93 96.94 61.76 96.94 61.76 99.54 48.73 99.54 48.73 96.94 44.56 96.94 44.56 94.85 39.87 94.85 39.87 92.77 37.79 92.77 37.79 88.6 35.7 88.6 35.7 68.8 37.79 68.8 37.79 66.71 39.87 66.71 39.87 64.63 41.96 64.63 41.96 62.54 44.56 62.54 44.56 60.46 50.82 60.46 50.82 57.85 57.59 57.85 57.59 60.46 63.84 60.46 63.84 62.54 65.93 62.54 65.93 64.63 68.01 64.63 68.01 68.8 61.76 68.8 61.76 66.71 48.73 66.71 48.73 68.8 46.65 68.8 46.65 70.88 44.56 70.88 44.56 73.49 41.96 73.49 41.96 83.91 44.56 83.91 44.56 86.51 46.65 86.51 46.65 88.6 48.73 88.6 48.73 90.68 59.68 90.68 59.68 88.6 61.76 88.6 61.76 86.51 63.84 86.51 63.84 83.91 65.93 83.91 65.93 81.82 68.01 81.82 68.01 75.57 70.62 75.57 70.62 47.43"/>
  <polygon class="st0" points="94.07 99.54 94.07 97.46 89.9 97.46 89.9 95.37 85.21 95.37 85.21 92.77 83.13 92.77 83.13 88.6 81.04 88.6 81.04 69.32 83.13 69.32 83.13 64.63 85.21 64.63 85.21 62.54 89.9 62.54 89.9 60.46 111.27 60.46 111.27 62.54 113.35 62.54 113.35 64.63 115.96 64.63 115.96 66.71 118.04 66.71 118.04 69.32 120.13 69.32 120.13 73.49 122.21 73.49 122.21 79.74 124.3 79.74 124.3 110.49 122.21 110.49 122.21 116.74 120.13 116.74 120.13 123.51 118.04 123.51 118.04 127.68 115.96 127.68 115.96 129.77 113.35 129.77 113.35 134.46 111.27 134.46 111.27 136.54 109.18 136.54 109.18 138.63 107.1 138.63 107.1 140.71 105.01 140.71 105.01 142.8 102.93 142.8 102.93 144.88 100.32 144.88 100.32 147.49 96.46 147.49 96.16 142.8 98.24 142.8 98.24 140.71 100.32 140.71 100.32 136.54 102.93 136.54 102.93 134.46 105.01 134.46 105.01 129.77 107.1 129.77 107.1 127.68 109.18 127.68 109.18 123.51 111.27 123.51 111.27 116.74 113.35 116.74 113.35 110.49 115.96 110.49 115.96 99.54 118.04 99.24 118.04 92.77 115.96 92.77 115.96 82.35 113.35 82.35 113.35 77.65 111.27 77.65 111.27 73.49 109.18 73.49 109.18 71.4 107.1 71.4 107.1 69.32 102.93 69.32 102.93 66.71 96.16 66.71 96.16 69.32 91.99 69.32 91.99 71.4 89.9 71.4 89.9 73.49 87.3 73.49 87.3 84.43 89.9 84.43 89.9 88.6 91.99 88.6 91.99 90.68 98.24 90.68 98.24 92.77 102.93 92.77 102.93 90.68 109.18 90.68 109.18 88.6 113.35 88.6 113.35 92.77 111.27 92.77 111.27 95.37 109.18 95.37 109.18 97.46 105.01 97.46 105.01 99.54 94.07 99.54"/>
</svg>