<?xml version="1.0" encoding="UTF-8"?>
<svg id="Layer_2" data-name="Layer 2" xmlns="http://www.w3.org/2000/svg" viewBox="0 0 160 160">
  <defs>
    <style>
      .cls-1 {
        fill: #b6ff00;
      }
    </style>
  </defs>
  <polygon class="cls-1" points="76.18 65 74.98 65 74.98 61.88 74.02 61.88 74.02 59.96 73.06 59.96 73.06 57.8 72.1 57.8 72.1 55.88 71.14 55.88 71.14 53.96 70.18 53.96 70.18 53 68.98 53 68.98 51.8 68.02 51.8 68.02 50.84 67.06 50.84 67.06 48.92 70.04 48.92 70.18 49.88 71.14 49.88 71.14 50.84 72.1 50.84 72.1 51.8 73.06 51.8 73.06 53 74.02 53 74.02 53.96 74.98 53.96 74.98 55.88 76.18 55.88 76.18 57.8 77.14 57.8 77.14 59.96 78.1 59.96 78.1 61.88 79.06 61.88 79.06 65 80.02 65 80.02 78.92 79.06 78.92 79.06 81.8 78.1 81.8 78.1 83.96 77.14 83.96 77.14 84.92 76.18 84.92 76.18 85.88 74.98 85.88 74.98 86.84 74.02 86.84 74.02 87.8 72.1 87.8 72.1 89 66.1 89 66.1 87.8 64.18 87.8 64.18 86.84 62.02 86.84 62.02 85.88 61.06 85.88 61.06 83.96 60.1 83.96 60.1 74.84 61.06 74.84 61.06 73.88 62.02 73.88 62.02 72.92 62.98 72.92 62.98 71.96 64.18 71.96 64.18 71 67.06 71 67.06 69.8 70.18 69.8 70.18 71 73.06 71 73.06 71.96 74.02 71.96 74.02 72.92 74.98 72.92 74.98 74.84 72.1 74.84 72.1 73.88 66.1 73.88 66.1 74.84 65.14 74.84 65.14 75.8 64.18 75.8 64.18 77 62.98 77 62.98 81.8 64.18 81.8 64.18 83 65.14 83 65.14 83.96 66.1 83.96 66.1 84.92 71.14 84.92 71.14 83.96 72.1 83.96 72.1 83 73.06 83 73.06 81.8 74.02 81.8 74.02 80.84 74.98 80.84 74.98 77.96 76.18 77.96 76.18 65"/>
  <polygon class="cls-1" points="86.98 89 86.98 88.04 85.06 88.04 85.06 87.08 82.9 87.08 82.9 85.88 81.94 85.88 81.94 83.96 80.98 83.96 80.98 75.08 81.94 75.08 81.94 72.92 82.9 72.92 82.9 71.96 85.06 71.96 85.06 71 94.9 71 94.9 71.96 95.86 71.96 95.86 72.92 97.06 72.92 97.06 73.88 98.02 73.88 98.02 75.08 98.98 75.08 98.98 77 99.94 77 99.94 79.88 100.9 79.88 100.9 94.04 99.94 94.04 99.94 96.92 98.98 96.92 98.98 100.04 98.02 100.04 98.02 101.96 97.06 101.96 97.06 102.92 95.86 102.92 95.86 105.08 94.9 105.08 94.9 106.04 93.94 106.04 93.94 107 92.98 107 92.98 107.96 92.02 107.96 92.02 108.92 91.06 108.92 91.06 109.88 89.86 109.88 89.86 111.08 88.08 111.08 87.94 108.92 88.9 108.92 88.9 107.96 89.86 107.96 89.86 106.04 91.06 106.04 91.06 105.08 92.02 105.08 92.02 102.92 92.98 102.92 92.98 101.96 93.94 101.96 93.94 100.04 94.9 100.04 94.9 96.92 95.86 96.92 95.86 94.04 97.06 94.04 97.06 89 98.02 88.86 98.02 85.88 97.06 85.88 97.06 81.08 95.86 81.08 95.86 78.92 94.9 78.92 94.9 77 93.94 77 93.94 76.04 92.98 76.04 92.98 75.08 91.06 75.08 91.06 73.88 87.94 73.88 87.94 75.08 86.02 75.08 86.02 76.04 85.06 76.04 85.06 77 83.86 77 83.86 82.04 85.06 82.04 85.06 83.96 86.02 83.96 86.02 84.92 88.9 84.92 88.9 85.88 91.06 85.88 91.06 84.92 93.94 84.92 93.94 83.96 95.86 83.96 95.86 85.88 94.9 85.88 94.9 87.08 93.94 87.08 93.94 88.04 92.02 88.04 92.02 89 86.98 89"/>
  <text></text>
</svg>